<svg xmlns="http://www.w3.org/2000/svg" viewBox="0 0 2930.61 1107.04"><defs><style>.cls-1{font-size:428.1px;font-family:HelveticaNeueLTStd-Th, Helvetica Neue LT Std;}.cls-1,.cls-5{fill:#507170;}.cls-2{letter-spacing:-0.08em;}.cls-3{letter-spacing:-0.04em;}.cls-4{letter-spacing:-0.04em;}.cls-6{stroke:#507170;stroke-miterlimit:10;stroke-width:3px;}.cls-7{fill:#f58220;}</style></defs><g id="Layer_2" data-name="Layer 2"><g id="Layer_1-2" data-name="Layer 1"><text class="cls-1" transform="matrix(1.02, -0.06, 0, 1, 0.86, 1015.42)"><tspan class="cls-2">NI</tspan><tspan class="cls-3" x="294.53" y="0">HO</tspan><tspan x="864.34" y="0">NT</tspan><tspan class="cls-4" x="1376.77" y="0">URISMO</tspan></text><path class="cls-5" d="M26.69,191.3A48.23,48.23,0,0,1,41.4,155.73q14.18-15.27,35.49-16.55l326.84-19.29q21.31-1.26,35.56,12.36,14.83,13,14.89,33.81l1,415.1q0,19.07-13.54,33.17t-32.53,15.22l-11.25.67q-14.81.87-24.89-8.94-10.68-9.78-10.72-23.65c0-2.7-1.4-4-4.15-3.81l-237.44,14c-2.76.16-4.14,1.6-4.13,4.29q0,13.88-10.6,24.91-9.45,11-24.84,11.88l-8.88.52q-18.36,1.08-31.42-10.87t-13.1-30.45Zm334.63,21.29c0-3.84-2-5.66-5.94-5.43L121.51,221q-5.92.34-5.91,6.13l.23,94.81q0,5.79,5.93,5.43l233.88-13.8c3.94-.24,5.92-2.28,5.91-6.13ZM116.3,517.9c0,3.86,2,5.66,5.94,5.43l233.88-13.81q5.91-.34,5.9-6.13l-.24-101.75c0-3.85-2-5.66-5.94-5.43L122,410q-5.92.35-5.9,6.13Z"/><path class="cls-5" d="M886.71,264.26a4.36,4.36,0,0,0-3,1.33,5.23,5.23,0,0,0,0,3.47q58.88,98.88,150.79,156.47Q1050,436.2,1051.8,454a16.9,16.9,0,0,1,.6,5.17q0,14.46-10,27.77l-1.77,1.83q-14.18,16.46-34.3,21.11a52.7,52.7,0,0,1-8.28,1.65,40.25,40.25,0,0,1-27.86-8.77q-21.35-14.92-46.87-38.28c0-.38-.3-.66-.89-.82A1.42,1.42,0,0,0,921,464a3.52,3.52,0,0,0-1.18,2.38l0,11.56q0,20.25-14.72,35.56t-35.49,16.55l-33.16,2c-3.95.23-5.92,2.09-5.91,5.55l.11,42.21q0,17.91-13.55,32T785.14,627q-19,1.13-32.6-11.37t-13.69-30.41l-.1-42.21c0-3.47-2-5.08-5.94-4.85l-37.3,2.2Q674.78,541.6,660,528q-14.84-13-14.89-33.81v-4.62a2.12,2.12,0,0,0-1.78-2.21c-.4-.75-1.18-.51-2.37.72a430.82,430.82,0,0,1-42.53,40.67q-13.61,10.63-27.81,11.47a36,36,0,0,1-7.7-.12q-19.54-1.15-33.2-16-10.1-11-10.13-24.84c0-2.69.19-4.44.58-5.24A40.93,40.93,0,0,1,536,464.79q91-70.71,150-184c.39-.79.19-1.94-.6-3.44,0-.76-1-1.09-3-1l-117.83,7a40.36,40.36,0,0,1-30.82-10.9q-13.06-11.37-13.1-29.3t12.95-30.83a43.89,43.89,0,0,1,30.76-14.53L732,187.82q5.91-.34,5.9-6.13l-.13-56.08q0-17.91,13.54-33.17,13-13.48,32.53-14.65,18.95-1.11,32,10.84,13.65,13.65,13.69,31.57l.14,56.08q0,5.78,5.93,5.43l169.34-10q18.35-1.08,30.82,10.9,13,11.37,13.1,29.3t-12.95,30.83q-13,13.48-30.76,14.53ZM672.8,455c0,.78.6,1.12,1.78,1l58-3.42q5.91-.36,5.9-6.13l-.2-86.15c0-.38-.4-.93-1.19-1.66-.4,0-1,.45-1.78,1.26q-30.08,51.51-62,91.55Q671.61,453.31,672.8,455Zm157.49-13.92q0,5.78,5.93,5.43L896,443c1.57-.09,2.36-.52,2.36-1.3q1.18-1.8-.6-3.43Q865.14,402,833,351.85c-.4-.74-1-.71-1.77.11a1.09,1.09,0,0,0-1.18,1.22Z"/><path class="cls-5" d="M1140.5,158.5l27.63,161.43Q1173,355.5,1138,364.49q-34.93,7.85-39.75-28.3l-28.21-159.65q-4.24-36.18,31.87-42.36Q1136.87,129.23,1140.5,158.5Zm18.79,421.57q-49.12,13.88-59.29-28.88-6.64-48.18,33-57.46a238.7,238.7,0,0,0,100-55.05,293.14,293.14,0,0,0,68.17-93.36q25-53.79,37.94-104.29t15.81-77.26q5.22-43.67,49.63-46.87,47.36-1.07,40.38,48.5-14,102.6-37.5,163a503.11,503.11,0,0,1-63.09,114.45q-39.55,54.09-89.5,89.42T1159.29,580.07Zm97.26-428.42,27.63,161.43q4.83,35.57-30.09,44.56-34.93,7.85-39.74-28.3l-28.22-159.65q-4.25-36.18,31.87-42.36Q1252.92,122.38,1256.55,151.65Z"/><path class="cls-5" d="M1459.53,338v-.58q-.1-45.09,46.07-47.82l181.19-10.7q46.18-2.73,46.29,42.37.11,45.68-46.07,48.4l-181.19,10.69Q1459.65,383.09,1459.53,338Z"/><path class="cls-5" d="M1770.37,313.86l-.44-182.1q-.11-44.52,45.48-47.21,46.18-2.73,46.29,41.79l.44,182.11q.1,44.52-45.48,47.21Q1770.48,358.38,1770.37,313.86Zm112.29,151.81q46.72-20.68,67.7-43.9t36-56.18q15-33,15.5-80.42l-.4-167.08q-.11-44.5,45.48-47.21,46.18-2.73,46.29,41.79l.41,167.08q-.42,72.31-23.39,124.25t-60.79,85.41q-37.82,33.45-95.79,60Q1866.91,566,1852,525.3,1843,479.58,1882.66,465.67Z"/><path class="cls-5" d="M2154.25,128.73v-.58q-.1-46.25,47.26-49.05l196-11.57q45.58-4.43,64.92,30t-4.24,82.06q-27.09,67.51-57.75,115.59,26.72,32.54,55.82,65.8t57,60.52q27.33,35.4-1.61,67.17-34.31,21.68-59.23-4.6-19.58-15-48.08-48t-56.42-67.79q-36,45.5-73.54,79.8a576.3,576.3,0,0,1-76,59.12q-39,24.85-64-7.79-17.88-44.61,16.41-68,33.72-17.59,74.77-57a682.51,682.51,0,0,0,77.07-88.39,496.76,496.76,0,0,0,58.38-102.32q6.45-21.19-13.67-20l-145.66,8.6Q2154.35,175,2154.25,128.73Z"/><path class="cls-5" d="M2546.81,106.71q-.12-46.24,47.25-49L2858.73,42q47.37-2.79,47.48,43.45T2859,134.54l-136.78,8.07.18,74,160.46-9.47q46.18-2.71,46.29,42.37T2883,297.33l-160.46,9.47.11,46.83q1.23,21.92,7.49,34.54t43,12.21q52.09-2.49,85.26-6.19,44.4-4.92,47.46,36.52,2.46,43.21-42.51,51.08-43.23,5.43-97.1,7.46-65.14.94-97.78-27.18t-36.35-94.42l-.13-55.5-56.25,3.32q-46.18,2.73-46.3-42.37t46.08-47.82l56.25-3.32-.18-74-37.3,2.2Q2546.9,153,2546.81,106.71Z"/><path class="cls-6" d="M26.68,150.91A48.27,48.27,0,0,1,41.4,115.35Q55.58,100.07,76.89,98.8L403.73,79.51Q425,78.25,439.29,91.86q14.83,13,14.89,33.82l1,415.09q0,19.08-13.54,33.18t-32.53,15.22l-11.25.67q-14.81.87-24.89-8.94-10.7-9.78-10.72-23.66c0-2.69-1.4-4-4.15-3.8l-237.44,14c-2.76.16-4.14,1.6-4.13,4.29q0,13.88-10.6,24.91-9.45,11-24.84,11.87l-8.88.53q-18.36,1.08-31.42-10.87t-13.1-30.45Zm334.64,21.3q0-5.78-5.94-5.43L121.51,180.59q-5.92.34-5.91,6.13l.23,94.81q0,5.79,5.93,5.43l233.88-13.8c3.94-.24,5.92-2.28,5.91-6.13Zm-245,305.31q0,5.78,5.94,5.43l233.88-13.81Q362,468.8,362,463l-.24-101.75c0-3.85-2-5.66-5.94-5.43L122,369.63q-5.92.36-5.9,6.13Z"/><path class="cls-6" d="M886.71,223.88a4.36,4.36,0,0,0-3,1.33,5.23,5.23,0,0,0,0,3.47q58.86,98.86,150.79,156.47,15.42,10.67,17.25,28.47a16.85,16.85,0,0,1,.6,5.17q0,14.46-10,27.76l-1.77,1.84q-14.18,16.46-34.3,21.11a51.16,51.16,0,0,1-8.28,1.64,40.2,40.2,0,0,1-27.86-8.76q-21.35-14.92-46.87-38.29c0-.38-.3-.65-.89-.81a1.41,1.41,0,0,0-1.48.38,3.48,3.48,0,0,0-1.18,2.38l0,11.56q0,20.25-14.72,35.56t-35.49,16.55l-33.16,2q-5.92.34-5.91,5.55l.1,42.21q0,17.91-13.54,32t-31.94,15.18q-19,1.13-32.6-11.37t-13.69-30.42l-.1-42.2c0-3.47-2-5.09-5.94-4.85l-37.3,2.2q-20.73,1.22-35.56-12.36-14.84-13-14.89-33.81v-4.63a2.11,2.11,0,0,0-1.78-2.2c-.4-.75-1.19-.51-2.37.71a428.78,428.78,0,0,1-42.54,40.68q-13.59,10.64-27.8,11.47a35.18,35.18,0,0,1-7.7-.13q-19.54-1.14-33.2-16-10.1-11-10.13-24.84c0-2.7.19-4.44.58-5.24A40.93,40.93,0,0,1,536,424.41q91-70.71,150-184c.39-.79.19-1.94-.6-3.44,0-.77-1-1.1-3-1l-117.83,7A40.37,40.37,0,0,1,533.79,232q-13.06-11.37-13.1-29.29t12.95-30.83a43.94,43.94,0,0,1,30.76-14.54L732,147.44q5.91-.34,5.9-6.13l-.13-56.08q0-17.91,13.54-33.18,13-13.47,32.53-14.64,18.95-1.11,32,10.83,13.65,13.67,13.69,31.58l.14,56.07q0,5.79,5.93,5.44l169.34-10q18.35-1.08,30.82,10.9,13,11.37,13.1,29.29t-12.95,30.84q-13,13.48-30.76,14.53ZM672.8,414.6c0,.77.6,1.12,1.78,1l58-3.43q5.91-.35,5.9-6.13l-.2-86.14c0-.38-.4-.93-1.19-1.66-.4,0-1,.44-1.78,1.26q-30.08,51.51-62,91.54Q671.61,412.94,672.8,414.6Zm157.49-13.92q0,5.77,5.93,5.43L896,402.58c1.57-.1,2.36-.52,2.36-1.3a2.43,2.43,0,0,0-.6-3.43Q865.14,361.61,833,311.47c-.4-.75-1-.71-1.77.1a1.1,1.1,0,0,0-1.18,1.23Z"/><path class="cls-6" d="M1140.5,118.12l27.63,161.43q4.83,35.57-30.09,44.56-34.93,7.84-39.75-28.3l-28.21-159.65Q1065.84,100,1102,93.8,1136.87,88.85,1140.5,118.12Zm18.79,421.56q-49.12,13.89-59.29-28.88-6.64-48.17,33-57.45a238.7,238.7,0,0,0,100-55.05,293.14,293.14,0,0,0,68.17-93.36q25-53.81,37.94-104.29t15.81-77.26q5.22-43.67,49.62-46.87,47.37-1.06,40.39,48.5-14,102.59-37.5,163a503.11,503.11,0,0,1-63.09,114.45q-39.55,54.09-89.5,89.42T1159.29,539.68Zm97.26-428.41,27.63,161.42q4.83,35.58-30.09,44.57-34.93,7.85-39.74-28.3l-28.22-159.65Q1181.88,93.13,1218,87,1252.92,82,1256.55,111.27Z"/><path class="cls-6" d="M1459.53,297.61V297q-.1-45.1,46.07-47.82l181.19-10.7q46.17-2.73,46.29,42.37.11,45.67-46.08,48.4L1505.82,340Q1459.64,342.71,1459.53,297.61Z"/><path class="cls-6" d="M1770.37,273.48l-.44-182.11q-.12-44.5,45.48-47.2Q1861.6,41.44,1861.7,86l.44,182.11q.1,44.52-45.48,47.2Q1770.48,318,1770.37,273.48Zm112.29,151.8q46.71-20.67,67.7-43.89t36-56.19q15-33,15.5-80.41l-.4-167.08q-.11-44.52,45.48-47.21,46.18-2.73,46.29,41.79l.41,167.08q-.42,72.3-23.39,124.25T2009.44,449q-37.82,33.47-95.79,60-46.74,16.63-61.64-24.12Q1843,439.19,1882.66,425.28Z"/><path class="cls-6" d="M2154.24,88.35v-.58q-.1-46.24,47.26-49l196-11.57q45.58-4.42,64.92,30t-4.24,82.06q-27.09,67.51-57.76,115.59,26.73,32.54,55.83,65.8t57,60.52q27.32,35.4-1.61,67.17-34.31,21.68-59.23-4.6-19.58-15-48.08-48t-56.42-67.79q-36,45.5-73.54,79.8a577.15,577.15,0,0,1-76,59.12q-39,24.86-64-7.79-17.86-44.61,16.42-68,33.72-17.59,74.77-57a684,684,0,0,0,77.07-88.39,497,497,0,0,0,58.38-102.32q6.45-21.19-13.67-20l-145.66,8.6Q2154.35,134.59,2154.24,88.35Z"/><path class="cls-6" d="M2546.81,66.33q-.12-46.24,47.25-49L2858.73,1.66q47.37-2.79,47.48,43.45T2859,94.16l-136.77,8.07.18,74,160.46-9.47q46.18-2.73,46.29,42.37T2883,257l-160.46,9.47.11,46.83q1.23,21.9,7.49,34.54t43,12.21q52.09-2.49,85.26-6.19,44.4-4.94,47.46,36.51,2.46,43.23-42.51,51.08-43.23,5.44-97.1,7.47-65.14.94-97.78-27.19t-36.35-94.41l-.13-55.5-56.25,3.32q-46.18,2.73-46.3-42.37t46.08-47.82l56.25-3.32-.18-74-37.3,2.2Q2546.9,112.59,2546.81,66.33Z"/><circle class="cls-7" cx="420.33" cy="112.19" r="12.33"/><circle class="cls-7" cx="801.37" cy="70.72" r="12.33"/><circle class="cls-7" cx="1118.54" cy="122.27" r="12.33"/><circle class="cls-7" cx="1236.21" cy="109.95" r="12.33"/><circle class="cls-7" cx="1420.01" cy="105.46" r="12.33"/><circle class="cls-7" cx="1700.19" cy="266.85" r="12.33"/><circle class="cls-7" cx="1835.8" cy="72.96" r="12.33"/><circle class="cls-7" cx="2068.91" cy="60.63" r="12.33"/><circle class="cls-7" cx="2428.66" cy="57.27" r="12.33"/><circle class="cls-7" cx="2872.46" cy="29.25" r="12.33"/></g></g></svg>