<svg xmlns="http://www.w3.org/2000/svg" viewBox="0 0 2905.43 1013.79"><defs><style>.cls-1{fill:#507170;}.cls-2{fill:#f58220;}</style></defs><g id="Layer_2" data-name="Layer 2"><g id="Layer_1-2" data-name="Layer 1"><path class="cls-1" d="M2.56,708.13l24.11-1.43L225.09,975.44l.88-.05L225.29,695l19.29-1.14.74,305.66-22.8,1.35L22.78,730.05l-.87.06.68,282.54L3.3,1013.79Z"/><path class="cls-1" d="M264.74,692.65,284,691.51l.74,305.67-19.29,1.13Z"/><path class="cls-1" d="M323.87,844.15l.36,150.7L304.94,996l-.74-305.67,19.29-1.14.34,138.71,199.93-11.81-.34-138.7,19.3-1.14.74,305.66L524.16,983l-.36-150.69Z"/><path class="cls-1" d="M716.22,979c-93.83,5.54-149.24-61.83-149.46-151.3S621.62,664.3,715.44,658.77c93.39-5.52,148.81,61.86,149,151.33S809.61,973.47,716.22,979Zm0-16.26c81.55-4.82,129.18-73.14,129-151.48S797,670.22,715.48,675c-82,4.84-129.62,73.16-129.43,151.51S634.19,967.56,716.18,962.72Z"/><path class="cls-1" d="M887.76,655.87l24.12-1.42L1110.3,923.18l.87,0-.68-280.41,19.3-1.14.74,305.67-22.8,1.34L908,677.8l-.88.05.69,282.55-19.3,1.14Z"/><path class="cls-1" d="M1151.3,656.58l0-16.26,239.83-14.16,0,16.27L1280.65,649l.7,289.4-19.3,1.13-.7-289.39Z"/><path class="cls-1" d="M1431.87,623.75l.44,183.23c.09,36.82,8.17,113,98.49,107.65,76.72-4.53,102.49-50.15,102.32-119.51l-.45-183.22,19.3-1.14.44,183.23c.18,72.77-27.75,131.37-121.58,136.91-111.36,6.57-117.71-82.11-117.81-122.78l-.45-183.23Z"/><path class="cls-1" d="M1689.67,608.53l130.65-7.71c54.81-3.24,99.14,13.84,99.28,72.92.1,41.1-25.25,73-66.89,82.3v.86c46.49,2.39,58,30.4,61.11,61.9s-2,66.06,10.72,81.58l-21.49,1.26c-11.89-20.27-5-55.79-8.53-85.12-4-29.31-19-52.4-73.79-49.17l-111.37,6.58.34,139.13-19.29,1.14Zm131,142.55c45.6-2.69,79.74-25.68,79.63-74.92-.12-46.23-37.87-61.56-80-59.07L1709,623.66l.32,134Z"/><path class="cls-1" d="M1948.34,593.26l19.3-1.14.73,305.67-19.29,1.14Z"/><path class="cls-1" d="M2209.87,665.17c-2.32-52.1-42.72-75.83-100.6-72.42-35.51,2.1-85.9,19.63-85.78,70.15.12,49.23,53.63,54.21,106.71,61.78,53.52,7.54,107,17.66,107.19,78.45.15,63.35-62,89.72-109.84,92.54-73.22,4.32-132.92-21.7-132.24-100.52L2014.6,794c-3.78,67,51.09,89,112.91,85.39,37.7-2.22,90.71-22,90.59-75.14-.13-51.8-53.64-57.63-107.16-65.17-53.08-7.57-106.59-16.83-106.74-75.05-.14-58.65,55.49-84.63,105-87.55,65.33-3.86,116.7,20.51,119.93,87.54Z"/><path class="cls-1" d="M2264,574.63l27.62-1.63,123,277.46.88-.05,120.32-291.83,27.62-1.63.74,305.66-19.29,1.14-.68-282.54-.88,0L2424.79,870.84,2405.5,872,2284.24,596.55l-.88.06.69,282.54-19.29,1.14Z"/><path class="cls-1" d="M2737,859.69c-93.83,5.54-149.24-61.83-149.46-151.31S2642.37,545,2736.2,539.48c93.38-5.52,148.8,61.86,149,151.33S2830.36,854.18,2737,859.69Zm0-16.26c81.55-4.82,129.18-73.14,129-151.48s-48.13-141-129.68-136.21c-82,4.84-129.63,73.16-129.44,151.51S2654.94,848.27,2736.93,843.43Z"/><path class="cls-1" d="M1.5,191.29a48.27,48.27,0,0,1,14.72-35.56q14.18-15.28,35.49-16.55l326.84-19.29q21.32-1.26,35.56,12.36,14.82,13,14.89,33.81l1,415.09q0,19.08-13.54,33.18t-32.53,15.22l-11.25.67q-14.81.87-24.9-8.94-10.68-9.78-10.71-23.65,0-4.05-4.16-3.81l-237.43,14c-2.77.16-4.14,1.6-4.13,4.29q0,13.88-10.6,24.91Q71.3,648,55.9,648.92l-8.88.52q-18.36,1.08-31.41-10.87T2.51,608.12Zm334.64,21.3c0-3.85-2-5.66-5.94-5.43L96.32,221c-3.95.23-5.91,2.28-5.91,6.13l.23,94.81q0,5.79,5.94,5.43l233.88-13.8q5.91-.36,5.91-6.13ZM91.12,517.9q0,5.77,5.93,5.43l233.88-13.81c3.94-.23,5.92-2.27,5.91-6.13l-.25-101.75q0-5.77-5.93-5.43L96.78,410q-5.93.36-5.91,6.14Z"/><path class="cls-1" d="M861.53,264.26a4.32,4.32,0,0,0-3,1.33,5.17,5.17,0,0,0,0,3.47q58.86,98.87,150.79,156.47,15.42,10.67,17.24,28.47a17.16,17.16,0,0,1,.61,5.17q0,14.46-10,27.76l-1.77,1.84q-14.18,16.46-34.3,21.11a51.22,51.22,0,0,1-8.29,1.64A40.17,40.17,0,0,1,945,502.76q-21.36-14.92-46.88-38.28c0-.38-.29-.66-.89-.82a1.42,1.42,0,0,0-1.48.38,3.5,3.5,0,0,0-1.17,2.38l0,11.56q.06,20.25-14.71,35.56t-35.5,16.55l-33.15,2q-5.93.35-5.91,5.55l.1,42.21q0,17.91-13.54,32T760,627q-19,1.13-32.6-11.37t-13.69-30.42l-.11-42.2c0-3.47-2-5.09-5.93-4.85l-37.3,2.2Q649.6,541.6,634.77,528q-14.85-13-14.89-33.81v-4.63a2.12,2.12,0,0,0-1.78-2.2q-.6-1.12-2.37.72a429.82,429.82,0,0,1-42.54,40.67q-13.6,10.63-27.8,11.47a36,36,0,0,1-7.7-.12q-19.54-1.15-33.2-16-10.11-11-10.13-24.84c0-2.7.18-4.44.58-5.24a40.89,40.89,0,0,1,15.92-29.27q91-70.71,150-184c.38-.79.19-1.94-.6-3.44,0-.77-1-1.1-3-1l-117.82,7a40.34,40.34,0,0,1-30.82-10.9q-13.07-11.38-13.1-29.3a41.78,41.78,0,0,1,12.95-30.83,43.94,43.94,0,0,1,30.76-14.54l167.56-9.89c3.94-.23,5.92-2.27,5.91-6.13l-.14-56.08q0-17.91,13.54-33.18,13-13.47,32.54-14.64,18.95-1.11,32,10.83,13.65,13.66,13.7,31.58l.14,56.07q0,5.79,5.93,5.44l169.34-10q18.35-1.08,30.82,10.9,13.05,11.37,13.1,29.29t-12.95,30.84q-13,13.48-30.76,14.53ZM647.62,455c0,.78.59,1.12,1.78,1l58-3.43c3.94-.23,5.92-2.27,5.91-6.13l-.21-86.14c0-.38-.4-.93-1.19-1.66-.39,0-1,.44-1.77,1.26q-30.07,51.51-62,91.55C647,452.7,646.82,453.87,647.62,455Zm157.49-13.92q0,5.78,5.93,5.43l59.8-3.53c1.57-.09,2.37-.52,2.37-1.3a2.43,2.43,0,0,0-.6-3.43Q839.94,402,807.85,351.85c-.4-.74-1-.71-1.78.1a1.11,1.11,0,0,0-1.18,1.23Z"/><path class="cls-1" d="M1115.32,158.5,1143,319.93q4.82,35.57-30.09,44.56-34.93,7.85-39.75-28.3l-28.22-159.65q-4.23-36.18,31.88-42.36Q1111.69,129.23,1115.32,158.5Zm18.78,421.56Q1085,594,1074.82,551.18q-6.64-48.16,33-57.45a238.67,238.67,0,0,0,99.94-55.05A293.17,293.17,0,0,0,1276,345.32q25-53.81,37.94-104.29t15.8-77.26q5.22-43.67,49.63-46.87,47.37-1.07,40.39,48.5-14,102.6-37.51,163a503.11,503.11,0,0,1-63.09,114.45q-39.54,54.09-89.49,89.42T1134.1,580.06Zm97.27-428.41L1259,313.08q4.82,35.57-30.09,44.56-34.94,7.85-39.75-28.3l-28.22-159.65q-4.23-36.18,31.88-42.36Q1227.74,122.38,1231.37,151.65Z"/><path class="cls-1" d="M1434.35,338v-.57q-.12-45.1,46.07-47.82l181.18-10.7q46.19-2.73,46.3,42.37.11,45.68-46.08,48.4l-181.18,10.69Q1434.46,383.09,1434.35,338Z"/><path class="cls-1" d="M1745.18,313.86l-.44-182.11q-.1-44.5,45.49-47.2,46.18-2.73,46.29,41.79l.44,182.11q.11,44.52-45.49,47.2Q1745.3,358.38,1745.18,313.86Zm112.29,151.81q46.72-20.68,67.7-43.9t36-56.18q15-33,15.5-80.42l-.41-167.08q-.11-44.52,45.49-47.21,46.19-2.73,46.29,41.79l.4,167.08Q2068,352.06,2045.05,404t-60.79,85.4q-37.83,33.47-95.79,60-46.74,16.64-61.65-24.11Q1817.84,479.57,1857.47,465.67Z"/><path class="cls-1" d="M2129.06,128.73v-.58Q2129,81.9,2176.32,79.1l196-11.57q45.59-4.43,64.92,30T2433,179.59q-27.07,67.51-57.75,115.59Q2402,327.72,2431,361t57,60.52q27.32,35.4-1.61,67.17-34.3,21.68-59.23-4.6-19.59-15-48.09-48t-56.42-67.79q-36,45.5-73.53,79.8a577.81,577.81,0,0,1-75.95,59.12q-39,24.85-64-7.79-17.86-44.61,16.42-68,33.7-17.59,74.77-57a684,684,0,0,0,77.07-88.39,497.48,497.48,0,0,0,58.38-102.32q6.45-21.19-13.67-20l-145.66,8.6Q2129.17,175,2129.06,128.73Z"/><path class="cls-1" d="M2521.62,106.71q-.1-46.24,47.26-49L2833.55,42q47.35-2.79,47.48,43.45t-47.26,49.05L2697,142.61l.17,74,160.46-9.47q46.18-2.73,46.3,42.37t-46.08,47.82l-160.46,9.47.12,46.83q1.23,21.92,7.48,34.54t43,12.21q52.1-2.49,85.26-6.19,44.4-4.94,47.46,36.52,2.46,43.21-42.52,51.07-43.22,5.45-97.1,7.47-65.14.94-97.77-27.18t-36.35-94.42l-.14-55.5-56.25,3.32q-46.18,2.73-46.29-42.37t46.07-47.82l56.25-3.32-.18-74-37.3,2.2Q2521.73,153,2521.62,106.71Z"/><path d="M1.5,150.91a48.26,48.26,0,0,1,14.72-35.56Q30.4,100.07,51.71,98.8L378.55,79.51q21.32-1.26,35.56,12.35,14.82,13,14.89,33.82l1,415.09q0,19.08-13.54,33.18t-32.53,15.22l-11.25.66q-14.82.88-24.9-8.93-10.68-9.78-10.71-23.66,0-4-4.16-3.8l-237.43,14c-2.77.16-4.14,1.6-4.13,4.29q0,13.88-10.6,24.91-9.47,11-24.85,11.87l-8.88.53q-18.36,1.08-31.41-10.87T2.51,567.74Zm334.64,21.3c0-3.85-2-5.66-5.94-5.43L96.32,180.59q-5.92.34-5.91,6.13l.23,94.81c0,3.86,2,5.66,5.94,5.43l233.88-13.81q5.91-.34,5.9-6.13Zm-245,305.3q0,5.79,5.93,5.44l233.88-13.81c3.94-.23,5.92-2.27,5.91-6.13l-.25-101.75c0-3.85-2-5.67-5.93-5.43L96.78,369.63q-5.93.36-5.91,6.13Z"/><path class="cls-1" d="M44,610.65A42.28,42.28,0,0,1,14.6,599.3C5.61,591.07,1,580.46,1,567.75L0,150.92H0a50,50,0,0,1,15.16-36.63c9.64-10.4,21.92-16.13,36.46-17L378.46,78c14.57-.86,26.91,3.44,36.69,12.77,10.13,8.88,15.31,20.64,15.35,34.89l1,415.1c0,13.05-4.67,24.57-14,34.22S397,589.9,384,590.67l-11.25.66c-10.26.61-19-2.54-26-9.36-7.38-6.75-11.15-15.08-11.17-24.72a2.56,2.56,0,0,0-.55-1.86,2.89,2.89,0,0,0-2-.45L95.57,569c-2,.11-2.73.89-2.72,2.79,0,9.6-3.69,18.34-11,26C75.34,605.23,66.62,609.4,56,610l-8.88.53C46.08,610.62,45.05,610.65,44,610.65ZM382,80.9c-1.12,0-2.25,0-3.4.1L51.8,100.3a49.48,49.48,0,0,0-34.48,16.07A47,47,0,0,0,3,150.91L4,567.74c0,11.84,4.27,21.71,12.61,29.35s18.55,11.16,30.31,10.47l8.88-.52c9.8-.58,17.8-4.4,23.8-11.36,6.83-7.09,10.26-15.12,10.24-23.93,0-3.47,2-5.58,5.54-5.79l237.43-14a5.56,5.56,0,0,1,4.26,1.26,5.37,5.37,0,0,1,1.49,4c0,8.77,3.46,16.36,10.23,22.55,6.41,6.24,14.4,9.1,23.79,8.55l11.25-.67a46.51,46.51,0,0,0,31.54-14.76,44.88,44.88,0,0,0,13.12-32.13l-1-415.1c0-13.35-4.87-24.35-14.38-32.69C404.7,85,394.27,80.9,382,80.9ZM96.4,484.47a6.86,6.86,0,0,1-4.86-1.65,7,7,0,0,1-1.92-5.3l-.25-101.75c0-4.64,2.59-7.35,7.32-7.63l233.88-13.81a7.23,7.23,0,0,1,5.6,1.63,7,7,0,0,1,1.92,5.3L338.34,463c0,4.64-2.59,7.35-7.32,7.63L97.14,484.44ZM331.31,357.31h-.56L96.87,371.13c-3.16.19-4.51,1.57-4.5,4.63l.25,101.75a4.17,4.17,0,0,0,1,3.13,4.46,4.46,0,0,0,3.36.81l233.88-13.81c3.16-.18,4.51-1.57,4.5-4.63l-.25-101.75a4.16,4.16,0,0,0-1-3.12A4,4,0,0,0,331.31,357.31ZM95.93,288.48a6.84,6.84,0,0,1-4.86-1.64,7,7,0,0,1-1.93-5.31l-.23-94.81c0-4.64,2.59-7.35,7.32-7.63l233.88-13.81a7.27,7.27,0,0,1,5.6,1.63,7,7,0,0,1,1.93,5.3l.22,94.81c0,4.64-2.58,7.35-7.31,7.63L96.67,288.46ZM330.86,168.26l-.57,0L96.41,182.08c-3.16.19-4.5,1.57-4.5,4.63l.23,94.82a4.25,4.25,0,0,0,1,3.12,4.46,4.46,0,0,0,3.37.81l233.88-13.8c3.16-.19,4.5-1.57,4.49-4.63l-.22-94.82a4.21,4.21,0,0,0-1-3.12A4,4,0,0,0,330.86,168.26Z"/><path d="M861.53,223.88a4.32,4.32,0,0,0-3,1.33,5.17,5.17,0,0,0,0,3.47q58.86,98.86,150.79,156.47,15.42,10.67,17.24,28.47a17.11,17.11,0,0,1,.61,5.17q0,14.44-10,27.76l-1.77,1.84q-14.18,16.46-34.3,21.11a51.22,51.22,0,0,1-8.29,1.64A40.17,40.17,0,0,1,945,462.38q-21.36-14.92-46.88-38.29c0-.38-.29-.65-.89-.81a1.42,1.42,0,0,0-1.48.37,3.5,3.5,0,0,0-1.17,2.39l0,11.56q.06,20.25-14.71,35.56t-35.5,16.55l-33.15,2q-5.93.34-5.91,5.55l.1,42.2q0,17.93-13.54,32T760,586.63q-19,1.13-32.6-11.37t-13.69-30.42l-.11-42.2q0-5.2-5.93-4.85l-37.3,2.2q-20.73,1.22-35.56-12.36-14.85-13-14.89-33.81v-4.63a2.12,2.12,0,0,0-1.78-2.2c-.4-.75-1.19-.51-2.37.71a428.78,428.78,0,0,1-42.54,40.68q-13.6,10.64-27.8,11.47a35.13,35.13,0,0,1-7.7-.13q-19.54-1.14-33.2-16-10.11-11-10.13-24.84c0-2.7.18-4.44.58-5.24a40.89,40.89,0,0,1,15.92-29.27q91-70.71,150-184.06c.38-.79.19-1.93-.6-3.43,0-.77-1-1.1-3-1l-117.82,7A40.38,40.38,0,0,1,508.61,232q-13.07-11.37-13.1-29.29a41.78,41.78,0,0,1,12.95-30.83,43.9,43.9,0,0,1,30.76-14.54l167.56-9.89c3.94-.23,5.92-2.27,5.91-6.13l-.14-56.08q0-17.91,13.54-33.18,13-13.47,32.54-14.64,18.95-1.11,32,10.83,13.65,13.67,13.7,31.57l.13,56.08q0,5.79,5.94,5.43l169.34-10q18.35-1.08,30.82,10.9,13.05,11.37,13.1,29.29t-12.95,30.83q-13,13.5-30.76,14.54ZM647.62,414.6c0,.77.59,1.12,1.78,1l58-3.43c3.94-.23,5.92-2.27,5.91-6.13L713.12,320c0-.38-.4-.93-1.19-1.66q-.6,0-1.77,1.26-30.07,51.51-62,91.54C647,412.32,646.82,413.49,647.62,414.6Zm157.49-13.93q0,5.79,5.93,5.44l59.8-3.53c1.57-.1,2.37-.52,2.37-1.3a2.43,2.43,0,0,0-.6-3.43q-32.67-36.24-64.76-86.38c-.4-.75-1-.71-1.78.1a1.11,1.11,0,0,0-1.18,1.23Z"/><path class="cls-1" d="M756.91,588.22a43.91,43.91,0,0,1-30.56-11.86c-9.38-8.58-14.16-19.18-14.18-31.51l-.11-42.21a3.41,3.41,0,0,0-.83-2.56,4.69,4.69,0,0,0-3.51-.8l-37.3,2.21c-14.19.83-26.52-3.46-36.67-12.75-10.16-8.9-15.34-20.66-15.37-34.92V449.2c0-.38,0-.59-.67-.77l-.45-.12-.45.43a431.25,431.25,0,0,1-42.66,40.79c-9.3,7.27-18.93,11.24-28.67,11.81a36.53,36.53,0,0,1-8-.13c-13.33-.8-24.81-6.33-34.13-16.43-7-7.56-10.5-16.26-10.52-25.86,0-3.44.3-4.86.61-5.63a42.53,42.53,0,0,1,16.46-30.06c60.23-46.8,110.55-108.56,149.57-183.57.07-.15,0-.8-.6-2l-.08-.14a5.78,5.78,0,0,0-1.47,0l-117.83,6.95a42,42,0,0,1-31.92-11.29c-9-7.81-13.55-18-13.58-30.4a43.41,43.41,0,0,1,13.39-31.9,45.52,45.52,0,0,1,31.73-15l167.56-9.9c3.16-.18,4.51-1.57,4.5-4.63l-.14-56.07C711,73,715.71,61.46,725,51.05c8.94-9.27,20.22-14.35,33.57-15.14,13-.76,24.12,3,33.1,11.23,9.4,9.4,14.16,20.37,14.19,32.67l.13,56.08a4.22,4.22,0,0,0,1,3.12,4.46,4.46,0,0,0,3.37.82l169.34-10c12.61-.74,23.36,3.06,32,11.32,8.95,7.8,13.53,18,13.56,30.37a43.45,43.45,0,0,1-13.4,31.9c-8.87,9.21-19.55,14.25-31.72,15l-118.42,7a2.85,2.85,0,0,0-1.73.65,3.65,3.65,0,0,0,.06,2c38.93,65.35,89.47,117.78,150.22,155.83,10.62,7.34,16.63,17.23,17.92,29.42a18.89,18.89,0,0,1,.63,5.48c0,9.93-3.44,19.58-10.3,28.68l-.12.13-1.77,1.84a65,65,0,0,1-35,21.53,53.24,53.24,0,0,1-8.54,1.68,41.86,41.86,0,0,1-28.86-9.08c-14.18-9.9-30-22.83-47-38.36l-.39-.36a1.94,1.94,0,0,0-.64,1.19l0,11.57c0,13.83-5.06,26.14-15.13,36.6a53.76,53.76,0,0,1-36.49,17l-33.15,2c-4,.23-4.51,2.18-4.5,4.05l.1,42.2c0,12.29-4.67,23.41-14,33.07S772.6,587.39,760,588.13C759,588.19,757.94,588.22,756.91,588.22Zm-48.57-92a7,7,0,0,1,4.95,1.64,6.21,6.21,0,0,1,1.77,4.74l.11,42.2c0,11.46,4.47,21.32,13.2,29.31a41.33,41.33,0,0,0,31.5,11c11.78-.69,22.19-5.65,31-14.72s13.15-19.5,13.12-31l-.1-42.2c0-4.27,2.59-6.78,7.32-7.06l33.16-2a50.76,50.76,0,0,0,34.5-16.09c9.51-9.88,14.33-21.49,14.29-34.52l0-11.56a4.94,4.94,0,0,1,1.59-3.43,3,3,0,0,1,3-.78,2.57,2.57,0,0,1,1.84,1.45c16.74,15.32,32.35,28.06,46.4,37.87a39.08,39.08,0,0,0,26.91,8.5,49.36,49.36,0,0,0,8-1.61,62,62,0,0,0,33.53-20.63l1.76-1.83c6.42-8.55,9.67-17.56,9.65-26.79a15,15,0,0,0-.53-4.68l-.07-.34c-1.16-11.36-6.75-20.57-16.6-27.39-61.14-38.29-112-91.11-151.23-156.93l-.13-.27a6.63,6.63,0,0,1,0-4.44l.1-.33.24-.24a5.82,5.82,0,0,1,4-1.79l118.42-7c11.4-.67,21.41-5.41,29.77-14.08a40.54,40.54,0,0,0,12.53-29.78c0-11.44-4.26-20.91-12.59-28.17-8-7.7-18-11.23-29.74-10.53l-169.34,10a7.24,7.24,0,0,1-5.6-1.62,7,7,0,0,1-1.93-5.3l-.13-56.08c0-11.48-4.49-21.74-13.26-30.52-8.31-7.6-18.71-11.11-30.85-10.39-12.58.74-23.19,5.51-31.55,14.18-8.72,9.8-13.14,20.62-13.12,32.14l.14,56.08c0,4.64-2.59,7.35-7.32,7.63l-167.56,9.89a42.59,42.59,0,0,0-29.75,14.06A40.55,40.55,0,0,0,497,202.7c0,11.44,4.26,20.92,12.58,28.16a39.11,39.11,0,0,0,29.75,10.54l117.82-7c1.92-.11,3.11.15,3.85.85a2.22,2.22,0,0,1,.66,1.18c.92,1.85,1.09,3.34.49,4.54-39.23,75.44-89.82,137.52-150.39,184.58a39.64,39.64,0,0,0-15.35,28.23l0,.28-.13.24c-.1.21-.43,1.14-.42,4.57,0,8.83,3.29,16.85,9.73,23.83,8.79,9.54,19.62,14.75,32.19,15.49l.18,0a34.75,34.75,0,0,0,7.34.1c9.12-.54,18.19-4.29,27-11.16a428.16,428.16,0,0,0,42.35-40.5c.83-.85,1.9-1.78,3.15-1.61a2.06,2.06,0,0,1,1.23.63,3.55,3.55,0,0,1,2.38,3.48v4.62c0,13.37,4.87,24.37,14.37,32.69,9.55,8.75,21.15,12.78,34.49,12l37.3-2.2Zm-59.23-79.1a3.13,3.13,0,0,1-2.24-.75,2.36,2.36,0,0,1-.71-1.31c-.55-1-1.11-2.85.91-5,21.11-26.52,41.9-57.24,61.79-91.32l.22-.28c1.11-1.16,1.94-1.67,2.76-1.72l.64,0,.47.44c1.17,1.08,1.67,1.9,1.67,2.76l.21,86.14c0,4.64-2.59,7.35-7.32,7.63l-58,3.43Zm62.25-96.7c-20,34.16-40.81,65-62,91.57l-.09.1c-.91.95-.64,1.32-.44,1.59l.27.44h.2l58-3.42c3.16-.19,4.51-1.58,4.5-4.63l-.21-85.89Zm99,87.17a6.84,6.84,0,0,1-4.86-1.65,7,7,0,0,1-1.92-5.3h0l-.22-87.88a2.56,2.56,0,0,1,2-2.64,2.63,2.63,0,0,1,2.05-.71,2.33,2.33,0,0,1,1.7,1.25c21.24,33.17,43,62.14,64.53,86.09a3.87,3.87,0,0,1,1,5c-.17.95-.95,2.15-3.73,2.31l-59.8,3.53Zm-4-94.57.21,87.61a4.22,4.22,0,0,0,1,3.13,4.5,4.5,0,0,0,3.37.81l59.8-3.53a4.49,4.49,0,0,0,1-.14v-.1l.24-.38c.29-.45.42-.79-.36-1.51l-.1-.1c-21.6-24-43.31-52.9-64.55-86l-.19.2Z"/><path d="M1115.32,118.12,1143,279.54q4.82,35.58-30.1,44.57-34.92,7.84-39.74-28.3l-28.22-159.66q-4.23-36.16,31.88-42.35Q1111.69,88.85,1115.32,118.12Zm18.78,421.56q-49.12,13.88-59.29-28.88-6.63-48.18,33-57.45a238.78,238.78,0,0,0,99.94-55.05A293.17,293.17,0,0,0,1276,304.94q25-53.81,37.94-104.29t15.8-77.26q5.22-43.68,49.63-46.87,47.37-1.06,40.39,48.49-14,102.6-37.51,163a503.11,503.11,0,0,1-63.09,114.45q-39.54,54.09-89.5,89.41T1134.1,539.68Zm97.27-428.41L1259,272.69q4.82,35.58-30.09,44.57-34.94,7.85-39.75-28.3L1160.94,129.3q-4.23-36.17,31.88-42.35Q1227.74,82,1231.37,111.27Z"/><path class="cls-1" d="M1112.39,544.56c-8,0-14.89-1.67-20.59-5-9-5.3-15.23-14.85-18.44-28.39l0-.14c-4.53-32.87,7-52.76,34.17-59.13a238.2,238.2,0,0,0,99.27-54.69,293,293,0,0,0,67.83-92.88c16.57-35.63,29.3-70.63,37.85-104s13.84-59.35,15.76-77c3.57-29.81,20.73-46,51-48.21,15.83-.36,27.39,3.49,34.45,11.44,7.44,8.38,10,21.42,7.53,38.76-9.28,68.16-21.92,123.1-37.59,163.3a507,507,0,0,1-63.27,114.79c-26.35,36-56.57,66.22-89.85,89.75s-65.58,39.71-96,48.07A82.17,82.17,0,0,1,1112.39,544.56Zm-36.1-34c3,12.67,8.76,21.56,17,26.42,9.68,5.69,23.27,6.12,40.37,1.29h0c30.06-8.27,62-24.29,95-47.63s63-53.31,89.15-89.07a503.88,503.88,0,0,0,62.9-114.11c15.59-40,28.17-94.69,37.42-162.62,2.32-16.44,0-28.67-6.8-36.36C1405,81.2,1394.19,77.69,1379.36,78c-29,2.09-44.75,17-48.17,45.55-1.93,17.82-7.26,43.88-15.84,77.45s-21.38,68.76-38,104.55a296.09,296.09,0,0,1-68.52,93.83,241.23,241.23,0,0,1-100.57,55.39C1082.4,460.84,1072,479.06,1076.29,510.53ZM1101.39,327c-6.59,0-12.14-1.56-16.61-4.67-7.06-4.92-11.48-13.77-13.16-26.31l-28.21-159.59c-2.93-25,8.21-39.84,33.1-44.1,13.08-1.85,23.14-.15,29.93,5.05,5.72,4.38,9.21,11.29,10.36,20.53l27.63,161.39c3.32,24.53-7.18,40.08-31.2,46.27A54,54,0,0,1,1101.39,327Zm-15.23-232.4a66.11,66.11,0,0,0-9.18.69c-23.32,4-33.34,17.31-30.6,40.7l28.21,159.57c1.56,11.73,5.57,19.89,11.91,24.31s15,5.27,26,2.78c22.57-5.82,32-19.85,28.93-42.89L1113.83,118.3c-1-8.42-4.14-14.67-9.22-18.55C1100.13,96.31,1093.94,94.59,1086.16,94.59Zm131.28,225.55c-6.58,0-12.14-1.56-16.6-4.67-7.06-4.92-11.49-13.77-13.17-26.31l-28.2-159.59c-2.94-25,8.2-39.84,33.1-44.1,13.07-1.85,23.13-.15,29.92,5,5.73,4.38,9.21,11.29,10.36,20.53l27.63,161.39c3.32,24.53-7.18,40.08-31.2,46.27A53.93,53.93,0,0,1,1217.44,320.14Zm-15.22-232.4a66.14,66.14,0,0,0-9.19.69c-23.31,4-33.34,17.31-30.6,40.7l28.21,159.57c1.56,11.73,5.57,19.89,11.91,24.31s15,5.27,26,2.78c22.57-5.82,32.05-19.85,28.93-42.9l-27.63-161.44c-1-8.43-4.14-14.67-9.21-18.55C1216.18,89.46,1210,87.74,1202.22,87.74Z"/><path d="M1434.35,297.61V297q-.1-45.1,46.08-47.83l181.18-10.69q46.19-2.73,46.3,42.37.11,45.67-46.08,48.4L1480.64,340Q1434.46,342.71,1434.35,297.61Z"/><path class="cls-1" d="M1475.59,341.63c-13.44,0-23.83-3.37-30.94-10.06-7.8-7.33-11.77-18.75-11.8-33.95h0V297c-.07-30.86,15.91-47.46,47.49-49.32L1661.51,237c16-.93,28.09,2.39,36.08,9.91,7.8,7.33,11.77,18.76,11.81,33.95.07,31.25-15.91,48-47.49,49.9l-181.18,10.7C1479,341.58,1477.26,341.63,1475.59,341.63Zm191.07-101.76c-1.61,0-3.27,0-5,.15l-181.18,10.69c-30.13,1.78-44.74,16.93-44.67,46.32v.58c0,14.34,3.68,25,10.86,31.78,7.36,6.92,18.75,10,33.84,9.09l181.18-10.69c30.13-1.78,44.74-17.12,44.67-46.9,0-14.34-3.69-25-10.87-31.78C1689,243,1679.3,239.87,1666.66,239.87Z"/><path d="M1745.18,273.48l-.44-182.11q-.1-44.5,45.49-47.2,46.18-2.73,46.29,41.79l.44,182.1q.11,44.54-45.49,47.21Q1745.3,318,1745.18,273.48Zm112.29,151.8q46.72-20.67,67.7-43.89t36-56.19q15-33,15.5-80.42l-.41-167.07q-.11-44.52,45.49-47.21,46.19-2.73,46.29,41.79l.4,167.08q-.42,72.3-23.38,124.25T1984.26,449q-37.83,33.47-95.79,60-46.74,16.63-61.65-24.12Q1817.84,439.19,1857.47,425.28Z"/><path class="cls-1" d="M1864,515.35c-18.39,0-31.33-10-38.61-29.92l-.06-.23c-6.13-31.16,4.49-51.79,31.57-61.31,30.79-13.63,53.38-28.27,67.14-43.5s25.84-34.07,35.73-55.81,15-48.53,15.37-79.81l-.41-167.06c-.07-30.48,15.71-46.87,46.9-48.71,16-.94,28.23,2.38,36.22,9.9,7.7,7.24,11.62,18.47,11.66,33.39l.4,167.07c-.28,48.21-8.19,90.21-23.51,124.86s-35.9,63.57-61.17,85.93-57.55,42.56-96.16,60.24l-.12.05Q1875.19,515.35,1864,515.35Zm-35.75-30.84c9.69,26.37,29.2,33.94,59.63,23.13,38.31-17.56,70.4-37.66,95.36-59.74s45.27-50.63,60.41-84.89,23-75.87,23.26-123.65l-.4-167.07c0-14.05-3.64-24.55-10.71-31.21-7.37-6.92-18.81-10-34-9.08-29.73,1.75-44.15,16.7-44.08,45.7l.41,167.08c-.33,31.72-5.59,59-15.64,81s-22.22,41-36.24,56.57-37,30.45-68.2,44.25l-.11.05C1832.15,435.76,1822.44,454.67,1828.27,484.51Zm-41.9-167.58c-13.51,0-23.93-3.37-31-10.05-7.7-7.25-11.62-18.48-11.66-33.39l-.44-182.11c-.07-30.48,15.71-46.87,46.9-48.71,16-1,28.23,2.38,36.22,9.89C1834.06,59.81,1838,71,1838,86l.44,182.11c.07,30.48-15.71,46.87-46.9,48.71C1789.78,316.88,1788.05,316.93,1786.37,316.93Zm9-271.42c-1.62,0-3.3.05-5,.15-29.73,1.76-44.15,16.71-44.08,45.71l.44,182.11c0,14.06,3.64,24.56,10.72,31.21,7.36,6.92,18.8,10,34,9.09,29.72-1.76,44.14-16.71,44.07-45.71L1835,86c0-14.06-3.64-24.56-10.72-31.21C1817.78,48.61,1808.05,45.51,1795.34,45.51Z"/><path d="M2129.06,88.34v-.57q-.12-46.24,47.26-49l196-11.57q45.59-4.42,64.92,30T2433,139.21q-27.07,67.51-57.75,115.58,26.73,32.55,55.82,65.8t57,60.53q27.32,35.4-1.61,67.17-34.3,21.68-59.23-4.6-19.59-15-48.09-48t-56.42-67.79q-36,45.5-73.53,79.79a576.48,576.48,0,0,1-76,59.13q-39,24.86-64-7.79-17.88-44.61,16.42-68,33.7-17.59,74.77-57a684,684,0,0,0,77.07-88.39,497.94,497.94,0,0,0,58.38-102.32q6.45-21.19-13.67-20l-145.66,8.6Q2129.15,134.59,2129.06,88.34Z"/><path class="cls-1" d="M2142.08,479c-12.92,0-24.3-6.38-34-19.12l-.13-.16-.07-.19c-12.16-30.35-6.45-53.85,17-69.84l.15-.09c22.24-11.61,47.28-30.72,74.43-56.78a685.57,685.57,0,0,0,76.9-88.2,498.05,498.05,0,0,0,58.17-101.94c2.07-6.83,2-11.75-.29-14.62-2-2.59-6-3.73-11.88-3.38l-145.65,8.6c-16.35,1-28.79-2.45-37-10.15-8-7.51-12.05-19.22-12.09-34.8v-.58c-.08-31.63,16.3-48.64,48.67-50.55l196-11.57c30.83-3,53.17,7.35,66.31,30.76s11.67,51.35-4.18,83.41c-17.82,44.43-37.09,83.07-57.27,114.86,17.54,21.34,36.07,43.18,55.1,64.93,19.26,22,38.41,42.37,56.92,60.44l.14.16c18.63,24.15,18.06,47.39-1.7,69.09l-.13.15-.17.11c-23.41,14.79-43.95,13.2-61-4.75-13.05-10-29.27-26.24-48.21-48.18-18.57-21.51-37.16-43.83-55.28-66.37-23.59,29.65-48,56.06-72.53,78.5A580.9,580.9,0,0,1,2174,468Q2156.79,479,2142.08,479Zm-31.53-20.78c16.2,21.08,36.44,23.46,61.85,7.27a578.41,578.41,0,0,0,75.75-59c24.83-22.71,49.51-49.5,73.37-79.62l1.16-1.48,1.18,1.47c18.47,23,37.44,45.8,56.39,67.75s35,37.93,47.86,47.83l.17.16c16.17,17,34.87,18.5,57.17,4.47,18.75-20.68,19.22-41.94,1.47-65-18.54-18.11-37.72-38.48-57-60.54s-38.09-44.21-55.85-65.83l-.69-.85.58-.91c20.31-31.82,39.7-70.63,57.63-115.34l.05-.1c15.4-31.15,16.84-58.29,4.28-80.67S2402,25.77,2372.44,28.64l-196,11.58c-30.92,1.82-45.91,17.38-45.84,47.54v.58c0,14.72,3.79,25.7,11.15,32.62,7.56,7.11,19.25,10.26,34.74,9.34l145.66-8.6c6.87-.4,11.73,1.12,14.41,4.52,2.95,3.75,3.21,9.45.78,17.43l-.05.14a500.71,500.71,0,0,1-58.56,102.63A687.8,687.8,0,0,1,2201.46,335c-27.32,26.24-52.57,45.49-75,57.24C2104.13,407.51,2098.93,429.1,2110.55,458.24Z"/><path d="M2521.62,66.33q-.1-46.24,47.26-49L2833.55,1.66q47.35-2.8,47.48,43.45t-47.26,49.05L2697,102.23l.17,74,160.46-9.47q46.18-2.73,46.3,42.37T2857.85,257l-160.46,9.47.12,46.83q1.23,21.9,7.48,34.54T2748,360q52.1-2.49,85.26-6.19,44.4-4.94,47.46,36.51,2.46,43.23-42.52,51.08-43.22,5.44-97.1,7.47-65.14.94-97.77-27.19t-36.35-94.41l-.14-55.5-56.25,3.32q-46.18,2.73-46.29-42.37t46.07-47.82l56.25-3.32-.18-74-37.3,2.2Q2521.73,112.59,2521.62,66.33Z"/><path class="cls-1" d="M2737,450.4c-41.6,0-73.42-9.27-94.65-27.58-22-18.94-34.38-51.06-36.87-95.47l-.13-54-54.67,3.23c-15.95.94-28.08-2.4-36.07-9.91-7.8-7.33-11.77-18.76-11.81-34-.08-30.86,15.9-47.45,47.49-49.32l54.83-3.23-.17-71-35.72,2.11c-16.36,1-28.79-2.45-37-10.15-8-7.51-12.06-19.22-12.1-34.8-.07-31.63,16.3-48.64,48.67-50.55L2833.46.16c16.35-1,28.78,2.45,37,10.15,8,7.52,12.06,19.22,12.1,34.8.07,31.63-16.3,48.63-48.67,50.55l-135.36,8,.17,71,158.87-9.38c16-.93,28.09,2.39,36.08,9.91,7.8,7.33,11.77,18.76,11.81,34,.07,30.87-15.91,47.46-47.49,49.33l-159,9.38.11,45.42c.8,14.24,3.27,25.66,7.33,33.87,3.87,7.83,17.87,11.67,41.6,11.38,34.43-1.65,63.08-3.73,85.11-6.18,15.69-1.74,27.81.84,36,7.67,7.67,6.38,12.08,16.54,13.09,30.22,1.69,29.59-13,47.3-43.75,52.67-28.79,3.62-61.51,6.14-97.3,7.49ZM2608.3,270.18l.14,57.08c2.43,43.49,14.49,74.9,35.83,93.29S2698.19,448,2741,447.37c35.67-1.34,68.3-3.85,96.94-7.46,29.31-5.12,42.81-21.32,41.2-49.5-.95-12.81-5-22.28-12-28.11-7.57-6.29-18.93-8.65-33.78-7-22.09,2.46-50.81,4.54-85.35,6.19-25.37.31-39.9-4-44.38-13-4.24-8.57-6.81-20.39-7.64-35.12l-.12-48.32,161.87-9.56c30.13-1.78,44.74-16.93,44.67-46.32,0-14.34-3.69-25-10.86-31.77-7.37-6.93-18.76-10-33.85-9.1l-162,9.56-.19-77,138.19-8.16c30.92-1.82,45.92-17.38,45.85-47.54,0-14.72-3.79-25.7-11.16-32.62-7.56-7.12-19.25-10.26-34.73-9.34L2569,18.78c-30.92,1.82-45.92,17.38-45.85,47.54h0c0,14.73,3.79,25.7,11.15,32.63,7.56,7.11,19.25,10.25,34.74,9.33L2607.9,106l.19,77-57.67,3.41c-30.12,1.78-44.73,16.93-44.66,46.32,0,14.34,3.69,25,10.86,31.77,7.37,6.93,18.76,10,33.84,9.1Z"/><circle class="cls-2" cx="395.14" cy="112.19" r="12.33"/><circle class="cls-2" cx="776.19" cy="70.72" r="12.33"/><circle class="cls-2" cx="1093.35" cy="122.27" r="12.33"/><circle class="cls-2" cx="1211.03" cy="109.95" r="12.33"/><circle class="cls-2" cx="1394.83" cy="105.46" r="12.33"/><circle class="cls-2" cx="1675.01" cy="266.85" r="12.33"/><circle class="cls-2" cx="1810.61" cy="72.96" r="12.33"/><circle class="cls-2" cx="2043.72" cy="60.63" r="12.33"/><circle class="cls-2" cx="2403.47" cy="57.27" r="12.33"/><circle class="cls-2" cx="2847.28" cy="29.25" r="12.33"/></g></g></svg>